<svg xmlns="http://www.w3.org/2000/svg" xmlns:xlink="http://www.w3.org/1999/xlink" width="441" height="400" viewBox="0 0 441 400"><defs><style>.a{clip-path:url(#b);}.b{fill:#1f1c2d;}.c,.f{fill:#fff;}.d{fill:#e86b6b;}.e{fill:#7289da;}.f{font-size:41px;font-family:Consolas;}</style><clipPath id="b"><rect width="441" height="400"/></clipPath></defs><g id="a" class="a"><rect class="c" width="441" height="400"/><g transform="translate(1402.5 -222.5)"><circle class="b" cx="100" cy="100" r="100" transform="translate(-1382.5 242.5)"/><path class="c" d="M54.285,521.339l17.976-9v2.868l-12.284,6.111,12.284,6.185v2.83Z" transform="translate(-1426.874 -175.029)"/><path class="d" d="M171.168,492.756v-3.145a16.852,16.852,0,0,0,7.2,1.9,6.6,6.6,0,0,0,2.592-.522,4.019,4.019,0,0,0,1.874-1.5,3.822,3.822,0,0,0,.636-2.122,4.115,4.115,0,0,0-.874-2.511,11.282,11.282,0,0,0-3.282-2.578l-1.677-.97-1.7-.986q-4.515-2.665-4.515-6.627a6.584,6.584,0,0,1,2.011-4.882q2.011-1.981,6.282-1.981a18.21,18.21,0,0,1,5.313.778v2.864a15.415,15.415,0,0,0-5.5-1.076,5.1,5.1,0,0,0-3.446,1.128,3.465,3.465,0,0,0-1.314,2.72,3.629,3.629,0,0,0,1.005,2.621,11.028,11.028,0,0,0,2.571,1.924l1.3.784,1.611.968,1.326.8q4.235,2.586,4.235,6.491a6.925,6.925,0,0,1-2.166,5.113q-2.166,2.134-6.945,2.135a15.871,15.871,0,0,1-2.9-.257A24.568,24.568,0,0,1,171.168,492.756Z" transform="translate(-1522.121 -137.979)"/><path class="d" d="M278.774,496.7V484.817l-7.656-13.8H274.9l5.733,10.2,5.714-10.2h3.43l-7.656,13.8V496.7Z" transform="translate(-1603.538 -141.379)"/><path class="d" d="M389.467,496.7v-25.69h6.092q4.2,0,6.249,1.465a8.773,8.773,0,0,1,3.071,4.428,21.5,21.5,0,0,1,1.026,7.019,19.247,19.247,0,0,1-1.084,6.745,9.944,9.944,0,0,1-3.071,4.469q-1.986,1.564-6.191,1.564Zm3.344-2.83h2.231q3.388,0,4.833-1.209a6.634,6.634,0,0,0,2.066-3.355,22.263,22.263,0,0,0,.62-5.923,17.275,17.275,0,0,0-.727-5.682,6.7,6.7,0,0,0-2.082-3.056,7.245,7.245,0,0,0-4.445-1.069h-2.5Z" transform="translate(-1699.937 -141.379)"/><path class="d" d="M499.207,496.7h-3.079v-25.69h3.013l9.071,17.1.993,2.549h.082l-.082-2.549v-17.1h3.079V496.7H509.2l-8.825-16.808-1.239-2.7.066,2.665Z" transform="translate(-1786.817 -141.379)"/><path class="d" d="M626.082,493.871v2.83H612.211v-25.69h13.623v2.582H615.555v8.724h9.253v2.565h-9.253v8.988Z" transform="translate(-1881.366 -141.379)"/><path class="d" d="M715.729,496.7V484.817l-7.656-13.8h3.778l5.733,10.2,5.714-10.2h3.43l-7.655,13.8V496.7Z" transform="translate(-1959.464 -141.379)"/><path class="c" d="M818.62,494.152h-3.029l16.325-27.229h2.932Z" transform="translate(-2047.172 -138.051)"/><path class="c" d="M946.172,521.339l-17.976,9v-2.859l12.287-6.118L928.2,515.172v-2.829Z" transform="translate(-2138.806 -175.029)"/></g><path class="e" d="M49.432,176.968a25,25,0,0,1-25-25v-90q0-.9.063-1.793l.09-45.925L48.86,36.974c.19,0,.38-.006.572-.006h351a25,25,0,0,1,25,25v90a25,25,0,0,1-25,25Z" transform="translate(-4.432 211.032)"/><text class="f" transform="translate(40 307)"><tspan x="0" y="0">Hey! I&apos;m Sydney,</tspan><tspan x="0" y="48">here to help!</tspan></text></g></svg>